# xmcd
#
# Track frame offsets:
#	150
#	17207
#	28157
#	43930
#	60920
#	73785
#	85747
#	98105
#	108840
#	121750
#	132005
#	145105
#	156310
#	168802
#	179930
#	194215
#	209297
#	226410
#	240490
#	250952
#	260927
#	275000
#	295237
#	305820
#	317150
#
# Disc length: 4373 seconds
#
# Revision: 3
# Processed by: cddbd v1.4PL0 Copyright (c) Steve Scherf et al.
# Submitted via: audiograbber 1.81.03
#
DISCID=7d111319
DTITLE=Various Artist - Country Top 100 Part 1 
DYEAR=1996
DGENRE=Country
TTITLE0=Don McLean - Crying
TTITLE1=Roger Miller - King Of The Road
TTITLE2=Randy Vanwarmer - Just When I Need You Most
TTITLE3=John Denver - Calypso
TTITLE4=B.J.Thomas - Raindrops Keep Falling On My Face
TTITLE5=Patsy Cline - Crazy
TTITLE6=The Bellamy Brothers - Let Your Love Flow
TTITLE7=Dolly Parton - It Wasn't God Who Made Honky
TTITLE8=Charlie Rich - The Most Beautiful Girl In The World
TTITLE9=Andy Tielman - Together Again
TTITLE10=Kenny Rogers - Ruby Don't Take Your Love To Town
TTITLE11=Freddy Fender - Before The Next Teardrop Falls
TTITLE12=Willie Nelson - To All The Girls I've Loved Before
TTITLE13=Hank Locklin - Sand Me The Pillow You Dream On
TTITLE14=Jeannie C.Riley - Harper Valley P T A
TTITLE15=Piet Veerman - You Needed Me
TTITLE16=Ennio Morricone - Once Upon A Time In The West
TTITLE17=George Jones - Good Year For The Roses
TTITLE18=Timi Yuro - Hurt
TTITLE19=Pat Boone - Love Letters In The Sand
TTITLE20=Don Williams - Amanda
TTITLE21=Pussycat - Mississippi
TTITLE22=Waylon Jennings - Sally Was A Good Old Girl
TTITLE23=Sammi Smith - Keep Make It Trought The Night
TTITLE24=Johnny Cash - I Love You Because
EXTD=
EXTT0=
EXTT1=
EXTT2=
EXTT3=
EXTT4=
EXTT5=
EXTT6=
EXTT7=
EXTT8=
EXTT9=
EXTT10=
EXTT11=
EXTT12=
EXTT13=
EXTT14=
EXTT15=
EXTT16=
EXTT17=
EXTT18=
EXTT19=
EXTT20=
EXTT21=
EXTT22=
EXTT23=
EXTT24=
PLAYORDER=
